<svg width="80" height="80" viewBox="0 0 80 80" fill="none" xmlns="http://www.w3.org/2000/svg">
  <path fill-rule="evenodd" clip-rule="evenodd" d="M27.2871 46.7114L13.6757 52.9167L26.2008 58.6266L38.9974 52.4283L27.2871 46.7114ZM28.2694 46.2636L39.9509 51.9664L51.7274 46.2622L40 40.9158L28.2694 46.2636ZM39.9495 52.8931L27.1855 59.0756L40 64.9175L52.7107 59.1229L39.9495 52.8931ZM53.693 58.6751L40.903 52.4312L52.7122 46.7111L66.3244 52.9167L53.693 58.6751ZM40.1729 40.0788C40.0631 40.0287 39.937 40.0287 39.8272 40.0788L12.4983 52.5375C12.1732 52.6858 12.1732 53.1476 12.4983 53.2958L39.8272 65.7545C39.937 65.8046 40.0631 65.8046 40.1729 65.7545L67.5018 53.2958C67.8269 53.1476 67.8269 52.6858 67.5018 52.5375L40.1729 40.0788Z" fill="white"/>
  <path fill-rule="evenodd" clip-rule="evenodd" d="M25.8333 33.5417L12.465 39.636C12.1529 39.7783 12.1529 40.2217 12.465 40.364L39.8341 52.841C39.9395 52.8891 40.0605 52.8891 40.1659 52.841L67.535 40.364C67.8471 40.2217 67.8471 39.7783 67.535 39.636L54.1667 33.5417L40.1659 39.9244C40.0605 39.9724 39.9395 39.9724 39.8341 39.9244L25.8333 33.5417Z" fill="url(#paint0_linear_177_2512)"/>
  <path fill-rule="evenodd" clip-rule="evenodd" d="M27.2871 20.8781L13.6757 27.0833L26.2008 32.7933L38.9974 26.5949L27.2871 20.8781ZM28.2694 20.4303L39.9509 26.1331L51.7275 20.4288L40 15.0825L28.2694 20.4303ZM39.9495 27.0597L27.1855 33.2423L40 39.0842L52.7107 33.2896L39.9495 27.0597ZM53.693 32.8418L40.903 26.5979L52.7122 20.8778L66.3244 27.0833L53.693 32.8418ZM40.1729 14.2455C40.0631 14.1954 39.937 14.1954 39.8272 14.2455L12.4983 26.7042C12.1732 26.8524 12.1732 27.3143 12.4983 27.4625L39.8272 39.9212C39.937 39.9713 40.0631 39.9713 40.1729 39.9212L67.5018 27.4625C67.8269 27.3143 67.8269 26.8524 67.5018 26.7042L40.1729 14.2455Z" fill="white"/>
  <defs>
    <linearGradient id="paint0_linear_177_2512" x1="11.6426" y1="40.0151" x2="68.3573" y2="40.0446" gradientUnits="userSpaceOnUse">
      <stop stop-color="#FB38FF"/>
      <stop offset="0.505208" stop-color="#64A1FF"/>
      <stop offset="1" stop-color="#0066FF"/>
    </linearGradient>
  </defs>
</svg>
