<svg width="80" height="80" viewBox="0 0 80 80" fill="none" xmlns="http://www.w3.org/2000/svg">
  <g clip-path="url(#clip0_121_2038)">
    <path d="M34.0413 14.2996C36.5369 9.45567 43.4626 9.45567 45.9582 14.2996C47.4578 17.2103 50.8408 18.6115 53.9592 17.6137C59.1491 15.9532 64.0463 20.8504 62.3858 26.0403C61.388 29.1587 62.7892 32.5417 65.6999 34.0413C70.5438 36.5369 70.5438 43.4626 65.6999 45.9582C62.7892 47.4577 61.388 50.8407 62.3858 53.9592C64.0463 59.149 59.1491 64.0462 53.9592 62.3857C50.8407 61.3879 47.4578 62.7892 45.9582 65.6999C43.4626 70.5438 36.5369 70.5438 34.0413 65.6999C32.5418 62.7892 29.1588 61.3879 26.0403 62.3857C20.8505 64.0463 15.9532 59.149 17.6138 53.9592C18.6116 50.8407 17.2103 47.4577 14.2996 45.9582C9.4557 43.4626 9.4557 36.5369 14.2996 34.0413C17.2103 32.5417 18.6116 29.1587 17.6138 26.0403C15.9532 20.8504 20.8505 15.9532 26.0403 17.6137C29.1588 18.6115 32.5418 17.2103 34.0413 14.2996Z" fill="#FEDA03"/>
    <path fill-rule="evenodd" clip-rule="evenodd" d="M51.927 31.3953C52.9371 32.3693 52.9663 33.9778 51.9923 34.9879L37.0962 50.4358L28.0077 41.0106C27.0336 40.0005 27.0629 38.392 28.073 37.418C29.0831 36.4439 30.6916 36.4732 31.6657 37.4833L37.0962 43.1149L48.3343 31.4606C49.3083 30.4505 50.9168 30.4212 51.927 31.3953Z" fill="black"/>
  </g>
  <defs>
    <clipPath id="clip0_121_2038">
      <rect width="58.6667" height="58.6667" fill="white" transform="translate(10.6667 10.6667)"/>
    </clipPath>
  </defs>
</svg>
