<svg width="80" height="80" viewBox="0 0 80 80" fill="none" xmlns="http://www.w3.org/2000/svg">
  <path d="M21.3334 50.6667C12.865 50.6667 6.00002 43.8017 6.00002 35.3333C6.00002 26.865 12.865 20 21.3334 20C29.8017 20 36.6667 26.865 36.6667 35.3333C36.6667 43.8017 29.8017 50.6667 21.3334 50.6667Z" fill="#6B8CEF"/>
  <path fill-rule="evenodd" clip-rule="evenodd" d="M28.0417 35.5441L20.8542 23.8333L13.6696 35.5441L20.8542 39.7656L28.0417 35.5441ZM28.0417 36.8857L20.8542 41.0523L13.6648 36.8816L20.8542 46.8282L28.0417 36.8857Z" fill="white"/>
  <g filter="url(#filter0_b_121_2044)">
    <ellipse cx="58.6666" cy="20" rx="15.3333" ry="15.3333" fill="#00EF8B"/>
  </g>
  <path fill-rule="evenodd" clip-rule="evenodd" d="M62.3333 15.3333C61.5969 15.3333 61 15.9302 61 16.6666V17.7333H65.3333V21.8H60.9333V23.5333C60.9333 26.7366 58.3366 29.3333 55.1333 29.3333C51.9301 29.3333 49.3333 26.7366 49.3333 23.5333C49.3333 20.3301 51.9301 17.7333 55.1333 17.7333H57V21.8H60.9333V17.7666H57V16.6666C57 13.7211 59.3878 11.3333 62.3333 11.3333H67.3666V15.3333H62.3333ZM55.1333 21.7333C54.1392 21.7333 53.3333 22.5392 53.3333 23.5333C53.3333 24.5275 54.1392 25.3333 55.1333 25.3333C56.1274 25.3333 56.9333 24.5275 56.9333 23.5333V21.7333H55.1333Z" fill="white"/>
  <path d="M54.6667 74.6667C46.1983 74.6667 39.3333 67.8017 39.3333 59.3333C39.3333 50.865 46.1983 44 54.6667 44C63.135 44 70 50.865 70 59.3333C70 67.8017 63.135 74.6667 54.6667 74.6667Z" fill="#2C7DF7"/>
  <g clip-path="url(#clip0_121_2044)">
    <path d="M55.6358 68.7493C54.3369 68.7493 53.3909 68.4232 52.7966 67.7709C52.2028 67.119 51.9056 66.4158 51.9056 65.6623C51.9056 65.3868 51.9573 65.155 52.0609 64.9666C52.162 64.7807 52.3088 64.6267 52.486 64.5207C52.6655 64.412 52.8865 64.3578 53.1491 64.3578C53.4117 64.3578 53.6324 64.412 53.8122 64.5207C53.9918 64.6294 54.1334 64.7782 54.237 64.9666C54.3406 65.155 54.3923 65.3868 54.3923 65.6623C54.3923 65.9956 54.3164 66.2672 54.1645 66.4775C54.0123 66.6877 53.8328 66.8252 53.6255 66.8908C53.8054 67.1513 54.0886 67.3361 54.4754 67.4448C54.8622 67.561 55.249 67.6188 55.6358 67.6188C56.1744 67.6188 56.6614 67.4667 57.0967 67.1624C57.5318 66.8578 57.8532 66.4086 58.0605 65.8144C58.2677 65.2203 58.3713 64.5461 58.3713 63.7923C58.3713 62.9736 58.2571 62.274 58.0293 61.6945C57.8081 61.1075 57.4801 60.6727 57.0448 60.39C56.6229 60.1114 56.1342 59.9645 55.6358 59.9662C55.304 59.9662 54.8898 60.1111 54.3923 60.401L53.4805 60.8793V60.401L57.5837 54.6615H51.9056V60.6182C51.9056 61.1111 52.0093 61.5169 52.2165 61.8358C52.4237 62.1548 52.7415 62.3141 53.1699 62.3141C53.5011 62.3141 53.8191 62.1982 54.1231 61.9661C54.4291 61.732 54.6952 61.4455 54.9104 61.1186C54.9381 61.053 54.9726 61.006 55.014 60.9769C55.0513 60.9425 55.0991 60.9232 55.1488 60.9227C55.2247 60.9227 55.3143 60.9626 55.4182 61.0425C55.515 61.1581 55.5632 61.2923 55.5632 61.4444C55.5514 61.5469 55.534 61.6486 55.5113 61.749C55.2766 62.2997 54.9518 62.7199 54.5373 63.0098C54.1338 63.2962 53.6571 63.4478 53.1699 63.4447C51.9402 63.4447 51.0904 63.191 50.6208 62.684C50.1512 62.1764 49.9163 61.4879 49.9163 60.6185V54.6615H47.0148V53.5526H49.9163V51.0309L49.2531 50.3347V49.7698H51.1803L51.9053 50.161V53.5526L59.4073 53.531L60.1535 54.3135L55.553 59.1399C55.8315 59.0235 56.1247 58.9502 56.4233 58.9225C56.9206 58.9225 57.4801 59.0893 58.1019 59.4226C58.7304 59.7488 59.214 60.1983 59.5523 60.7703C59.8908 61.3357 60.1084 61.8793 60.2051 62.401C60.3087 62.923 60.3607 63.3866 60.3607 63.7923C60.3607 64.7201 60.174 65.5823 59.8012 66.3798C59.4281 67.1768 58.8617 67.7709 58.1019 68.1623C57.342 68.5538 56.5198 68.7493 55.6358 68.7493Z" fill="white"/>
  </g>
  <defs>
    <filter id="filter0_b_121_2044" x="32.7246" y="-5.94201" width="51.884" height="51.8841" filterUnits="userSpaceOnUse" color-interpolation-filters="sRGB">
      <feFlood flood-opacity="0" result="BackgroundImageFix"/>
      <feGaussianBlur in="BackgroundImage" stdDeviation="5.30435"/>
      <feComposite in2="SourceAlpha" operator="in" result="effect1_backgroundBlur_121_2044"/>
      <feBlend mode="normal" in="SourceGraphic" in2="effect1_backgroundBlur_121_2044" result="shape"/>
    </filter>
    <clipPath id="clip0_121_2044">
      <rect width="13.4167" height="19.1667" fill="white" transform="translate(47 49.75)"/>
    </clipPath>
  </defs>
</svg>
