<svg width="80" height="80" viewBox="0 0 80 80" fill="none" xmlns="http://www.w3.org/2000/svg">
  <path d="M61.2028 28.8807C61.2389 29.3668 61.2389 29.8501 61.2389 30.3335C61.2389 45.1251 49.9806 62.1696 29.4056 62.1696C23.0667 62.1696 17.1778 60.3335 12.2222 57.1446C13.1222 57.2474 13.9889 57.2835 14.925 57.2835C20.1556 57.2835 24.9694 55.5168 28.8167 52.5029C23.8972 52.4001 19.775 49.1779 18.3528 44.7446C19.0445 44.8474 19.7389 44.9168 20.4667 44.9168C21.4695 44.9168 22.4778 44.7779 23.4139 44.5362C18.2833 43.4974 14.4417 38.9946 14.4417 33.5557V33.4168C15.9333 34.2474 17.6639 34.7668 19.4972 34.8362C16.4833 32.8307 14.5083 29.4001 14.5083 25.5196C14.5083 23.4418 15.0611 21.5362 16.0306 19.8751C21.5389 26.6612 29.8195 31.0974 39.1028 31.5835C38.9306 30.7501 38.825 29.8862 38.825 29.0196C38.825 22.8529 43.8139 17.8307 50.0139 17.8307C53.2361 17.8307 56.1445 19.1807 58.1889 21.364C60.7167 20.8779 63.1389 19.9418 65.2889 18.6612C64.4583 21.2585 62.6889 23.4418 60.3694 24.8279C62.6222 24.5835 64.8056 23.9612 66.8111 23.0946C65.2889 25.3112 63.3861 27.2862 61.2028 28.8807Z" fill="#1D9BF0"/>
</svg>
